<svg id="Capa_1" enable-background="new 0 0 512 512" height="512" viewBox="0 0 512 512" width="512" xmlns="http://www.w3.org/2000/svg"><g><g><g><path d="m462.678 398.611c24.259-38.016 38.322-83.17 38.322-131.611 0-135.31-109.69-245-245-245s-245 109.69-245 245c0 48.441 14.063 93.595 38.322 131.611z" fill="#bd80e1"/></g><g><path d="m87.665 445c43.896 41.527 103.138 67 168.335 67s124.438-25.473 168.335-67z" fill="#ea9b58"/></g><g><path d="m424.335 445h-336.67c8.602 8.138 17.798 15.652 27.508 22.485h281.647c9.711-6.835 18.912-14.346 27.515-22.485z" fill="#d88a55"/></g></g><path d="m307.279 130.513c-5.312-11.584-8.279-24.458-8.279-38.013 0-2.186.082-4.352.234-6.5h-93.793c-8.726 0-15.8 7.074-15.8 15.8v28.713z" fill="#fed402"/><path d="m240.282 130.513v-28.713c0-8.726 7.074-15.8 15.8-15.8h-50.641c-8.726 0-15.8 7.074-15.8 15.8v28.713z" fill="#fac600"/><g><path d="m119.904 398.611h272.192c23.731-8.374 40.862-31.059 40.862-57.562v-150.516c0-5.502-.751-10.834-2.133-15.914-12.172 6.002-25.861 9.381-40.325 9.381-37.286 0-69.43-22.421-83.671-54.487h-166.767c-33.561 0-61.02 27.459-61.02 61.02v150.516c0 26.503 17.131 49.188 40.862 57.562z" fill="#b5adb6"/><path d="m119.904 398.611h87.958c-23.731-8.374-40.862-31.059-40.862-57.562v-150.516c0-33.561 27.459-61.02 61.02-61.02h-87.958c-33.561 0-61.02 27.459-61.02 61.02v150.516c0 26.503 17.131 49.188 40.862 57.562z" fill="#a79ba7"/><path d="m390.5 184c-23.799 0-45.503-9.136-61.795-24.082h-188.643c-16.881 0-30.615 13.735-30.615 30.615v150.515c0 16.881 13.734 30.615 30.615 30.615h231.876c16.881 0 30.615-13.735 30.615-30.615v-150.515c0-2.487-.305-4.902-.867-7.218-3.668.449-7.4.685-11.186.685z" fill="#fff"/><path d="m167 341.049v-150.516c0-11.141 3.04-21.6 8.31-30.615h-35.248c-16.881 0-30.615 13.735-30.615 30.615v150.515c0 16.881 13.734 30.615 30.615 30.615h35.248c-5.27-9.014-8.31-19.473-8.31-30.614z" fill="#f3f0f3"/><path d="m394.085 183.923c.627 2.096.968 4.313.968 6.61v150.516c0 12.746-10.369 23.115-23.115 23.115h-231.876c-12.746 0-23.115-10.369-23.115-23.115v-150.516c0-12.746 10.369-23.115 23.115-23.115h197.969c-6.136-4.31-11.723-9.351-16.628-15h-181.341c-21.017 0-38.115 17.099-38.115 38.115v150.516c0 21.017 17.098 38.115 38.115 38.115h231.875c21.017 0 38.115-17.099 38.115-38.115v-150.516c0-2.899-.336-5.72-.952-8.436-4.875 1.011-9.892 1.628-15.015 1.826z" fill="#cbc4cc"/><g fill="#a79ba7"><path d="m256 254c3.555 0 6.935.75 10 2.094v-75.302c0-2.761-2.239-5-5-5h-10c-2.761 0-5 2.239-5 5v75.302c3.065-1.344 6.445-2.094 10-2.094z"/><path d="m332.485 269.169h-53.503c1.297 3.019 2.017 6.342 2.017 9.831 0 3.62-.78 7.06-2.17 10.169h53.656c2.761 0 5-2.239 5-5v-10c0-2.762-2.238-5-5-5z"/></g></g><g><path d="m479 446h-446c-5.523 0-10-4.477-10-10v-28.388c0-5.523 4.477-10 10-10h446c5.523 0 10 4.477 10 10v28.388c0 5.523-4.477 10-10 10z" fill="#fed402"/></g><g><path d="m104 429c-5.523 0-10-4.477-10-10v-21.388h-61c-5.523 0-10 4.477-10 10v28.388c0 5.523 4.477 10 10 10h446c5.523 0 10-4.477 10-10v-7z" fill="#fac600"/></g><g><circle cx="256" cy="279" fill="#fed402" r="26"/></g><path d="m250 279c0-10.815 6.605-20.086 16-24.004-3.079-1.284-6.456-1.996-10-1.996-14.359 0-26 11.641-26 26s11.641 26 26 26c3.544 0 6.921-.712 10-1.996-9.395-3.918-16-13.189-16-24.004z" fill="#fac600"/><g><g><circle cx="143.5" cy="279" fill="#fed402" r="12"/></g><g><circle cx="368.5" cy="279" fill="#fed402" r="12"/></g></g><g><g><circle cx="390.5" cy="92.5" fill="#af66da" r="92.5"/></g><g><path d="m350.323 92.5c0-41.999 27.994-77.455 66.338-88.741-8.296-2.442-17.074-3.759-26.161-3.759-51.086 0-92.5 41.414-92.5 92.5s41.414 92.5 92.5 92.5c9.087 0 17.865-1.317 26.162-3.759-38.345-11.286-66.339-46.742-66.339-88.741z" fill="#9857bd"/></g><g><path d="m409.977 112.047c-20.632-1.226-37.232-18.118-38.125-38.767-.513-11.86 4.063-22.651 11.723-30.386 1.918-1.937.184-5.177-2.502-4.714-26.79 4.616-46.965 28.565-45.637 56.966 1.338 28.624 24.87 51.673 53.515 52.459 27.103.743 49.938-18.082 55.419-43.376.574-2.648-2.618-4.464-4.624-2.643-7.776 7.056-18.293 11.143-29.769 10.461z" fill="#fff"/></g><g fill="#f3f0f3"><path d="m397.513 130.979c-28.645-.786-52.176-23.835-53.515-52.459-.314-6.713.587-13.171 2.479-19.19-7.457 9.88-11.672 22.345-11.042 35.816 1.338 28.624 24.87 51.673 53.515 52.459 25.352.695 46.967-15.733 54.14-38.56-10.347 13.716-26.955 22.445-45.577 21.934z"/><path d="m383.575 42.894c1.179-1.191.975-2.871.021-3.883-.829 1.953-1.508 3.983-2.026 6.079.645-.754 1.308-1.491 2.005-2.196z"/></g><g><path d="m439 65.773c-12.404 4.08-16.955 8.63-21.035 21.035-.559 1.7-2.982 1.7-3.541 0-4.08-12.404-8.63-16.955-21.035-21.035-1.7-.559-1.7-2.982 0-3.541 12.404-4.08 16.955-8.63 21.035-21.035.559-1.7 2.982-1.7 3.541 0 4.08 12.404 8.63 16.955 21.035 21.035 1.7.559 1.7 2.982 0 3.541z" fill="#fff"/></g><g><path d="m405.135 56.493c-2.947 2.322-6.686 4.074-11.746 5.739-1.7.559-1.7 2.982 0 3.541 12.404 4.08 16.955 8.63 21.035 21.035.559 1.7 2.982 1.7 3.541 0 1.66-5.048 3.408-8.781 5.722-11.725-3.721-10.44-8.133-14.866-18.552-18.59z" fill="#f3f0f3"/></g></g></g></svg>