<svg id="Capa_1" enable-background="new 0 0 512 512" height="512" viewBox="0 0 512 512" width="512" xmlns="http://www.w3.org/2000/svg"><g><g><circle cx="339.169" cy="91.867" fill="#ffd064" r="47.992"/></g><g><path d="m357.787 47.621c2.412 5.725 3.747 12.016 3.747 18.618 0 26.505-21.487 47.992-47.992 47.992-6.603 0-12.893-1.335-18.618-3.747 7.271 17.258 24.342 29.374 44.245 29.374 26.505 0 47.992-21.487 47.992-47.992 0-19.902-12.116-36.974-29.374-44.245z" fill="#ffc250"/></g><g><path d="m339.169 147.534c-30.695 0-55.668-24.973-55.668-55.668s24.973-55.668 55.668-55.668 55.668 24.973 55.668 55.668-24.973 55.668-55.668 55.668zm0-95.984c-22.23 0-40.316 18.086-40.316 40.316s18.086 40.316 40.316 40.316 40.316-18.086 40.316-40.316-18.086-40.316-40.316-40.316z" fill="#fbf4c6"/></g><g><path d="m477.99 456.791h-443.979c-8.284 0-15-6.716-15-15v-209.776c0-8.284 6.716-15 15-15h443.979c8.284 0 15 6.716 15 15v209.777c0 8.284-6.716 14.999-15 14.999z" fill="#95d6a4"/></g><g><circle cx="256" cy="336.903" fill="#78c2a4" r="104.9"/></g><g><path d="m240.385 409.509c-2.492 0-5.047-.291-7.61-1.122-5.93-1.926-10.075-6.025-13.731-9.642-1.688-1.669-3.282-3.246-4.812-4.361-1.567-1.14-3.584-2.188-5.719-3.297-4.539-2.359-9.684-5.031-13.305-10.007-3.595-4.94-4.555-10.648-5.403-15.685-.402-2.391-.783-4.65-1.394-6.532-.567-1.745-1.557-3.712-2.605-5.796-2.32-4.609-4.949-9.835-4.949-16.164 0-6.331 2.63-11.556 4.949-16.165 1.048-2.084 2.038-4.052 2.605-5.796.611-1.883.991-4.142 1.394-6.533.848-5.036 1.809-10.744 5.403-15.684 3.623-4.976 8.767-7.649 13.306-10.008 2.135-1.109 4.151-2.157 5.719-3.298 1.531-1.113 3.124-2.691 4.812-4.36 3.656-3.617 7.801-7.716 13.731-9.642 5.72-1.857 11.403-1.013 16.418-.271 2.445.363 4.754.705 6.806.705 2.051 0 4.361-.342 6.806-.705 5.015-.743 10.698-1.584 16.417.271 5.931 1.927 10.075 6.025 13.731 9.642 1.688 1.669 3.282 3.246 4.813 4.36 1.567 1.141 3.584 2.189 5.719 3.298 4.54 2.359 9.685 5.032 13.306 10.009 3.594 4.938 4.555 10.646 5.403 15.683.402 2.392.783 4.65 1.394 6.533.566 1.744 1.556 3.712 2.605 5.796 2.32 4.609 4.949 9.835 4.949 16.165s-2.63 11.556-4.949 16.166c-1.048 2.083-2.039 4.05-2.606 5.794-.611 1.883-.99 4.142-1.393 6.532-.849 5.036-1.809 10.745-5.403 15.684-3.621 4.976-8.766 7.65-13.306 10.008-2.135 1.109-4.152 2.158-5.72 3.298-1.53 1.114-3.124 2.691-4.811 4.36-3.656 3.617-7.801 7.716-13.731 9.642-5.721 1.855-11.404 1.014-16.419.271-2.446-.362-4.754-.705-6.806-.705-2.051 0-4.361.343-6.805.705-2.768.411-5.74.851-8.809.851zm15.614-16.908c3.183 0 6.17.443 9.057.871 3.669.545 7.135 1.059 9.427.313 2.466-.801 4.996-3.303 7.677-5.954 2.018-1.997 4.106-4.061 6.573-5.858 2.5-1.819 5.131-3.186 7.676-4.509 3.33-1.73 6.475-3.364 7.97-5.418 1.468-2.017 2.056-5.506 2.678-9.199.477-2.834.97-5.765 1.931-8.724.928-2.858 2.232-5.449 3.493-7.955 1.703-3.384 3.311-6.58 3.311-9.265 0-2.686-1.608-5.881-3.311-9.265-1.26-2.506-2.565-5.097-3.493-7.955-.96-2.959-1.454-5.891-1.931-8.725-.622-3.693-1.209-7.181-2.678-9.198-1.494-2.054-4.641-3.689-7.972-5.419-2.544-1.322-5.173-2.689-7.673-4.508-2.469-1.797-4.557-3.862-6.575-5.859-2.68-2.651-5.21-5.153-7.676-5.955-2.294-.742-5.758-.23-9.427.314-2.887.428-5.874.871-9.056.871-3.183 0-6.169-.443-9.057-.871-3.669-.544-7.134-1.055-9.427-.313-2.465.801-4.996 3.303-7.675 5.954-2.019 1.997-4.106 4.062-6.575 5.859-2.5 1.819-5.13 3.185-7.674 4.508-3.331 1.73-6.477 3.365-7.972 5.419-1.468 2.017-2.055 5.505-2.677 9.198-.477 2.834-.97 5.766-1.931 8.725-.928 2.857-2.232 5.449-3.493 7.955-1.703 3.384-3.311 6.579-3.311 9.265 0 2.685 1.608 5.88 3.311 9.263 1.261 2.507 2.565 5.097 3.493 7.956.961 2.959 1.455 5.891 1.931 8.726.622 3.693 1.209 7.181 2.677 9.198 1.494 2.053 4.64 3.687 7.971 5.418 2.544 1.321 5.175 2.689 7.675 4.508 2.468 1.797 4.556 3.862 6.574 5.858 2.68 2.651 5.211 5.154 7.676 5.955 2.293.748 5.758.231 9.427-.313 2.887-.428 5.874-.871 9.056-.871z" fill="#95d6a4"/></g><g><path d="m498.695 198.005h-485.39c-7.348 0-13.305 5.957-13.305 13.305v251.187c0 7.348 5.957 13.305 13.305 13.305h485.39c7.348 0 13.305-5.957 13.305-13.305v-251.187c0-7.348-5.957-13.305-13.305-13.305zm-79.356 239.776h-326.678c-2.575 0-4.855-1.615-5.758-4.026-8.224-21.95-24.602-39.908-45.448-50.201-2.099-1.036-3.435-3.163-3.435-5.503v-82.297c0-2.34 1.336-4.467 3.435-5.503 20.846-10.293 37.223-28.251 45.448-50.201.903-2.411 3.183-4.025 5.758-4.025h326.679c2.575 0 4.855 1.615 5.758 4.025 8.224 21.95 24.602 39.908 45.448 50.201 2.099 1.036 3.435 3.163 3.435 5.503v82.297c0 2.34-1.336 4.467-3.435 5.503-20.846 10.293-37.224 28.251-45.448 50.201-.904 2.412-3.184 4.026-5.759 4.026z" fill="#78c2a4"/></g><g><g><path d="m498.695 198.005h-11.835v239.351c0 7.348-5.957 13.305-13.305 13.305h-473.555v11.836c0 7.348 5.957 13.305 13.305 13.305h485.39c7.348 0 13.305-5.957 13.305-13.305v-251.187c0-7.348-5.957-13.305-13.305-13.305z" fill="#66b394"/></g></g><g><circle cx="210.504" cy="195.13" fill="#ffd064" r="73.749"/></g><g><path d="m251.557 133.86c7.879 11.735 12.479 25.856 12.479 41.052 0 40.73-33.018 73.749-73.749 73.749-15.197 0-29.317-4.6-41.053-12.479 13.238 19.717 35.736 32.696 61.27 32.696 40.73 0 73.749-33.018 73.749-73.749 0-25.533-12.979-48.031-32.696-61.269z" fill="#ffc250"/></g><g><path d="m210.504 276.554c-44.898 0-81.425-36.526-81.425-81.424s36.527-81.425 81.425-81.425 81.425 36.527 81.425 81.425-36.527 81.424-81.425 81.424zm0-147.498c-36.433 0-66.073 29.64-66.073 66.073 0 36.432 29.64 66.072 66.073 66.072s66.073-29.64 66.073-66.072c0-36.433-29.64-66.073-66.073-66.073z" fill="#fbf4c6"/></g><g><g><g><path d="m432.25 324.686c-1.922 0-3.846-.718-5.337-2.16-.037-.034-.116-.11-.203-.198-7.172-7.182-11.126-16.834-11.278-26.743-9.919-.152-19.579-4.114-26.764-11.299-2.997-2.997-2.997-7.858.001-10.855 2.997-2.997 7.858-2.996 10.855.001 5.9 5.902 14.578 8.19 22.65 5.978 2.658-.729 5.507.024 7.459 1.974 1.95 1.951 2.705 4.798 1.974 7.459-2.209 8.051.065 16.706 5.935 22.607l.047.044c3.046 2.948 3.126 7.808.178 10.854-1.505 1.555-3.51 2.338-5.517 2.338z" fill="#78c2a4"/></g><g><path d="m80.5 324.686c-1.986 0-3.97-.766-5.473-2.293-2.972-3.022-2.932-7.883.09-10.855.028-.028.067-.066.106-.103 5.87-5.943 8.122-14.568 5.92-22.592-.73-2.661.023-5.508 1.974-7.459 1.95-1.95 4.797-2.704 7.459-1.974 8.07 2.213 16.748-.077 22.65-5.978 2.997-2.998 7.858-2.997 10.855-.001 2.997 2.997 2.998 7.858 0 10.855-7.184 7.185-16.845 11.146-26.764 11.298-.151 9.92-4.113 19.579-11.298 26.765-.057.057-.151.147-.221.214-1.482 1.416-3.391 2.123-5.298 2.123zm-5.315-13.213c-.021.022-.042.043-.064.065.021-.022.043-.043.064-.065z" fill="#78c2a4"/></g></g><g><g><path d="m394.097 402.851c-1.964 0-3.929-.75-5.428-2.248-2.997-2.998-2.997-7.858 0-10.856 7.185-7.184 16.845-11.145 26.765-11.297.151-9.919 4.113-19.579 11.297-26.765.048-.047.125-.122.186-.18 3.003-2.906 7.795-2.874 10.763.091 2.997 2.998 2.997 7.858 0 10.856-.038.038-.096.093-.148.144-5.862 5.901-8.131 14.55-5.924 22.595.731 2.66-.024 5.507-1.974 7.458-1.952 1.952-4.801 2.704-7.459 1.975-8.07-2.213-16.749.077-22.65 5.979-1.499 1.498-3.464 2.248-5.428 2.248z" fill="#78c2a4"/></g><g><path d="m118.654 402.851c-1.964 0-3.929-.75-5.428-2.248-5.901-5.902-14.581-8.191-22.651-5.979-2.66.731-5.508-.024-7.458-1.975s-2.704-4.798-1.974-7.458c2.205-8.037-.058-16.677-5.906-22.578-.071-.068-.141-.136-.209-.206-2.973-3.021-2.934-7.882.088-10.855 2.992-2.942 7.783-2.933 10.764-.003l.096.092c7.218 7.218 11.188 16.888 11.342 26.809 9.92.151 19.579 4.113 26.765 11.297 2.997 2.997 2.998 7.858 0 10.855-1.5 1.499-3.465 2.249-5.429 2.249z" fill="#78c2a4"/></g></g></g><path d="m218.621 187.583c-4.845-1.712-10.184-3.765-13.048-6.013-.18-.141-.512-.999-.27-2.285.117-.62.653-2.691 2.644-3.29 4.8-1.447 7.849.926 8.181 1.201l-.137-.123.868.469c7.489 4.044 15.037-5.254 9.541-11.752-1.704-1.572-4.69-3.468-8.558-4.602v-.596c0-4.24-3.437-7.676-7.676-7.676s-7.676 3.436-7.676 7.676v1.055c-6.31 2.31-10.97 7.884-12.272 14.797-1.275 6.767.979 13.36 5.881 17.206 4.6 3.608 11.085 6.173 17.408 8.407 2.994 1.058 4.263 3.076 3.771 5.999-.378 2.246-2.311 6.055-7.165 6.087-5.058.022-6.252-.154-9.947-2.57-3.801-2.489-8.99-1.167-11.082 3.018-1.769 3.539-.371 7.863 2.953 10.007 3.907 2.521 7.04 3.788 10.452 4.394v.676c0 4.24 3.437 7.676 7.676 7.676s7.676-3.436 7.676-7.676v-1.67c7.248-2.709 12.923-8.892 14.466-16.792 2.047-10.482-3.517-20.029-13.686-23.623z" fill="#e2982f"/><g><path d="m345.211 116.127c-13.723 0-24.887-11.164-24.887-24.887s11.164-24.887 24.887-24.887c4.24 0 7.676 3.436 7.676 7.676s-3.436 7.676-7.676 7.676c-5.257 0-9.535 4.278-9.535 9.535s4.278 9.535 9.535 9.535c4.24 0 7.676 3.436 7.676 7.676s-3.436 7.676-7.676 7.676z" fill="#e2982f"/></g></g></svg>