<svg height="512pt" viewBox="-16 0 512 512" width="512pt" xmlns="http://www.w3.org/2000/svg"><path d="m239.933594 310.878906c-5.679688 0-10.875-3.210937-13.414063-8.292968l-39.894531-79.785157h-75.222656c-25.992188 0-47.136719-21.144531-47.136719-47.132812v-128.535157c0-25.808593 20.855469-47.132812 47.136719-47.132812h257.066406c25.824219 0 47.132812 20.871094 47.132812 47.132812v128.535157c0 25.988281-21.144531 47.132812-47.132812 47.132812h-75.226562l-39.890626 79.785157c-2.542968 5.082031-7.734374 8.292968-13.417968 8.292968zm0 0" fill="#edf6ff"/><path d="m368.46875 0h-128.535156v310.878906c5.683594 0 10.875-3.210937 13.417968-8.292968l39.890626-79.785157h75.226562c25.988281 0 47.132812-21.144531 47.132812-47.132812v-128.535157c0-26.261718-21.308593-47.132812-47.132812-47.132812zm0 0" fill="#d5e9ff"/><path d="m111.402344 385.601562c-35.4375 0-64.269532-28.832031-64.269532-64.269531 0-35.433593 28.832032-64.265625 64.269532-64.265625s64.265625 28.832032 64.265625 64.265625c0 35.4375-28.828125 64.269531-64.265625 64.269531zm0 0" fill="#ffece3"/><path d="m111.398438 385.601562c-61.523438 0-111.398438 49.875-111.398438 111.398438 0 8.285156 6.714844 15 15 15h192.800781c8.285157 0 15-6.714844 15-15 0-61.523438-49.875-111.398438-111.402343-111.398438zm0 0" fill="#00eccf"/><path d="m111.402344 257.066406v128.535156c35.4375 0 64.265625-28.832031 64.265625-64.269531 0-35.433593-28.828125-64.265625-64.265625-64.265625zm0 0" fill="#ffdccd"/><path d="m207.800781 512c8.285157 0 15-6.714844 15-15 0-61.523438-49.875-111.398438-111.402343-111.398438v126.398438zm0 0" fill="#00cab1"/><path d="m368.46875 385.601562c-35.4375 0-64.269531-28.832031-64.269531-64.269531 0-35.433593 28.832031-64.265625 64.269531-64.265625s64.265625 28.832032 64.265625 64.265625c0 35.4375-28.828125 64.269531-64.265625 64.269531zm0 0" fill="#e8afa3"/><path d="m368.46875 385.601562c-61.523438 0-111.402344 49.875-111.402344 111.398438 0 8.285156 6.71875 15 15 15h192.800782c8.285156 0 15-6.714844 15-15 0-61.523438-49.875-111.398438-111.398438-111.398438zm0 0" fill="#0051bd"/><path d="m368.46875 257.066406v128.535156c35.4375 0 64.265625-28.832031 64.265625-64.269531 0-35.433593-28.828125-64.265625-64.265625-64.265625zm0 0" fill="#d19188"/><path d="m464.867188 512c8.285156 0 15-6.714844 15-15 0-61.523438-49.875-111.398438-111.398438-111.398438v126.398438zm0 0" fill="#00347b"/><path d="m239.933594 166.566406c23.566406 0 46.070312-11.253906 60.203125-30.101562 4.96875-6.628906 3.625-16.03125-3.003907-21-6.628906-4.972656-16.03125-3.625-21 3.003906-8.496093 11.332031-22.027343 18.097656-36.199218 18.097656s-27.703125-6.765625-36.199219-18.097656c-4.964844-6.628906-14.367187-7.972656-20.996094-3.003906-6.628906 4.96875-7.976562 14.371094-3.007812 21 14.128906 18.847656 36.636719 30.101562 60.203125 30.101562zm0 0" fill="#515cdf"/><path d="m287.066406 79.265625c0 8.285156-6.714844 15-15 15-8.28125 0-15-6.714844-15-15 0-8.28125 6.71875-15 15-15 8.285156 0 15 6.71875 15 15zm0 0" fill="#0051bd" fill-rule="evenodd"/><path d="m222.800781 79.265625c0 8.285156-6.714843 15-15 15-8.285156 0-15-6.714844-15-15 0-8.28125 6.714844-15 15-15 8.285157 0 15 6.71875 15 15zm0 0" fill="#515cdf" fill-rule="evenodd"/><path d="m300.136719 136.464844c4.96875-6.628906 3.625-16.03125-3.003907-21-6.628906-4.972656-16.03125-3.625-21 3.003906-8.496093 11.332031-22.027343 18.097656-36.199218 18.097656v30c23.566406 0 46.074218-11.253906 60.203125-30.101562zm0 0" fill="#0051bd"/></svg>