<svg id="Capa_1" enable-background="new 0 0 512 512" height="512" viewBox="0 0 512 512" width="512" xmlns="http://www.w3.org/2000/svg"><g><g><path d="m274.62 2.952c-.822-1.863 1.203-3.681 2.963-2.657 13.743 8.001 44.149 30.084 38.177 66.236-6.709 40.618-42.314 60.564-42.314 102.11 0 32.909 61.186 79.304 61.186 79.304l-139.548 176.763s-13.48-31.288-55.296-61.95c-53.028-38.883-108.208-121.605-68.906-201.675 33.906-69.077 115.887-73.663 160.543-94.578 52.593-24.632 48.411-51.737 43.195-63.553z" fill="#d5b0ec"/></g><g><path d="m273.445 168.642c0-41.546 35.605-61.492 42.314-102.11 5.972-36.152-24.434-58.236-38.177-66.236-1.76-1.024-3.785.794-2.963 2.657 2.692 6.099 5.108 16.271-.415 28.073 5.464 9.75 8.572 21.58 6.271 35.506-6.709 40.618-42.314 60.564-42.314 102.11 0 32.909 61.186 79.304 61.186 79.304l-120.148 152.19c11.498 14.41 15.885 24.572 15.885 24.572l139.547-176.762c.001 0-61.186-46.395-61.186-79.304z" fill="#bb80e0"/></g><g><path d="m350.363 79.42c.163-2.179 3.016-2.891 4.19-1.048 7.293 11.443 20.662 37.068 16.87 66.473-3.867 29.991-55.521 119.15-76.231 105.371-26.262-17.473-54.533-21.76-46.046-69.634 5.861-33.06 38.138-49.805 60.463-57.627 33.621-11.779 39.926-32.499 40.754-43.535z" fill="#d5b0ec"/></g><g><path d="m354.553 78.372c-1.174-1.843-4.027-1.131-4.19 1.048-.563 7.51-3.673 19.503-16.191 30.113 2.922 10.491 4.513 22.544 2.867 35.312-2.841 22.035-31.478 76.008-54.685 97.63 4.221 2.394 8.557 4.892 12.839 7.742 20.71 13.779 72.363-75.381 76.231-105.371 3.791-29.406-9.578-55.032-16.871-66.474z" fill="#bb80e0"/></g><g><path d="m438.536 385.269c-15.965-32.65 3.345-54.779 14.746-64.24 2.218-1.841 1.009-5.438-1.872-5.551l-29.693-1.168c-31.448-1.237-61.402 13.457-79.672 39.084l-18.987 26.632c-22.173 31.101-15.915 74.664 14.896 97.238 31.306 22.937 75.223 15.799 97.683-15.705 16.594-23.276 16.808-47.847 2.899-76.29z" fill="#d5b0ec"/></g><g><path d="m451.41 315.477-29.693-1.168c-5.32-.209-10.594.048-15.779.726l11.225.441c2.881.113 4.09 3.71 1.872 5.551-11.401 9.462-30.711 31.59-14.746 64.24 13.908 28.444 13.695 53.015-2.899 76.29-9.941 13.944-24.088 23.104-39.483 27.006 26.982 6.859 56.597-2.974 73.73-27.006 16.594-23.275 16.807-47.846 2.899-76.29-15.965-32.65 3.345-54.779 14.746-64.24 2.219-1.839 1.009-5.436-1.872-5.55z" fill="#bb80e0"/></g><g><g><g><path d="m381.181 157.122h-210.59c-16.727 0-30.288 13.56-30.288 30.288v184.858 102.792c0-20.401 16.538-36.94 36.94-36.94h21.773 182.165c6.691 0 12.115-5.424 12.115-12.115v-256.768c.001-6.691-5.424-12.115-12.115-12.115z" fill="#465961"/></g></g><g><g><path d="m359.572 475.061c0-15.459 7.952-29.054 19.983-36.94h-202.312c-20.401 0-36.94 16.538-36.94 36.94 0 20.401 16.538 36.939 36.939 36.939h193.1c2.951 0 4.352-3.557 2.258-5.637-8.044-7.994-13.028-19.064-13.028-31.302z" fill="#eaeaea"/></g></g><g><g><path d="m381.181 157.122h-32.307v177.69c0 31.407-25.46 56.867-56.867 56.867h-137.412-14.291v83.381c0-20.401 16.538-36.94 36.94-36.94h21.773 182.165c6.691 0 12.115-5.424 12.115-12.115v-256.768c0-6.691-5.425-12.115-12.116-12.115z" fill="#394949"/></g></g><g><g><path d="m359.572 475.06c0-15.459 7.952-29.054 19.983-36.94h-30.236c-12.031 7.886-19.983 21.48-19.983 36.94v.141c.023 7.313-5.741 13.316-13.054 13.316h-173.438c5.381 13.744 18.749 23.482 34.4 23.482h172.075.001 21.026c2.951 0 4.351-3.557 2.258-5.637-8.048-7.992-13.032-19.063-13.032-31.302z" fill="#c6d0da"/></g></g></g><g><path d="m226.214 400.614c-25.307-12.146-24.176-34.811-21.794-45.986.427-2.003-1.973-3.375-3.465-1.972-6.403 6.018-16.793 17.53-21.048 32.101-9.009 30.848 2.829 61.233 19.376 78.315 23.724 24.49 58.107 12.106 61.67-14.867 2.889-21.871-12.709-37.018-34.739-47.591z" fill="#d5b0ec"/></g><g><path d="m226.214 400.614c-25.307-12.146-24.176-34.811-21.793-45.986.427-2.003-1.973-3.375-3.465-1.972-6.403 6.018-16.793 17.53-21.048 32.101-.78 2.67-1.393 5.336-1.871 7.99 3.064 2.899 6.9 5.571 11.683 7.866 22.03 10.573 37.627 25.72 34.738 47.591-1.333 10.091-6.981 18.139-14.769 22.979 22.287 12.628 48.197.244 51.265-22.979 2.888-21.87-12.71-37.017-34.74-47.59z" fill="#bb80e0"/></g><g><g><g><g><path d="m172.349 206.558 3.044 12.434c4.934 20.155 18.941 34.363 37.917 42.758 1.796 1.198 1.796 3.837 0 5.035-18.976 8.395-32.983 22.603-37.917 42.758l-3.044 12.434c-.626 2.559-4.264 2.559-4.891 0l-3.044-12.434c-4.934-20.155-18.941-34.363-37.917-42.758-1.796-1.198-1.796-3.837 0-5.035 18.976-8.395 32.983-22.603 37.917-42.758l3.044-12.434c.627-2.558 4.265-2.558 4.891 0z" fill="#f3eaf9"/></g></g></g><g><path d="m213.309 261.75c-18.976-8.395-32.982-22.603-37.917-42.758l-3.044-12.434c-.626-2.558-4.264-2.558-4.891 0l-3.044 12.434c-1.633 6.671-4.279 12.676-7.751 18.049 7.018 10.86 17.471 19.093 30.166 24.709 1.796 1.198 1.796 3.837 0 5.035-12.695 5.617-23.148 13.849-30.166 24.709 3.472 5.373 6.118 11.378 7.751 18.049l3.044 12.434c.626 2.559 4.264 2.559 4.891 0l3.044-12.434c4.934-20.155 18.941-34.362 37.917-42.758 1.797-1.198 1.797-3.838 0-5.035z" fill="#e4c8f2"/></g></g><g><g><g><g><path d="m252.302 290.662 1.846 7.539c2.992 12.22 11.484 20.835 22.989 25.925 1.089.726 1.089 2.327 0 3.053-11.505 5.09-19.998 13.704-22.989 25.925l-1.846 7.539c-.38 1.551-2.585 1.551-2.965 0l-1.845-7.539c-2.992-12.22-11.484-20.835-22.989-25.925-1.089-.726-1.089-2.327 0-3.053 11.505-5.09 19.998-13.704 22.989-25.925l1.845-7.539c.379-1.552 2.585-1.552 2.965 0z" fill="#f3eaf9"/></g></g></g><g><path d="m277.137 324.125c-11.505-5.09-19.998-13.704-22.99-25.925l-1.845-7.539c-.38-1.551-2.586-1.551-2.965 0l-1.846 7.539c-.99 4.045-2.594 7.686-4.699 10.943 4.255 6.585 10.593 11.576 18.29 14.982 1.089.726 1.089 2.327 0 3.053-7.697 3.405-14.035 8.397-18.29 14.982 2.105 3.258 3.709 6.898 4.699 10.943l1.846 7.539c.38 1.551 2.585 1.551 2.965 0l1.845-7.539c2.992-12.22 11.484-20.835 22.99-25.925 1.089-.726 1.089-2.326 0-3.053z" fill="#e4c8f2"/></g></g></g></svg>