<svg height="512" viewBox="0 0 512 512" width="512" xmlns="http://www.w3.org/2000/svg"><g id="Flat"><path d="m79.791 432.208c-13.329-13.328-11.721-39.475 1.823-72.528l3.219-9.18-18.926-49.5c-43.325 74.236-55.438 139.786-25.07 170.164l38.954-38.955z" fill="#c378cb"/><path d="m471.164 40.834c-30.378-30.368-95.929-18.245-170.164 25.071l46.5 21.095 12.181-5.388c33.052-13.545 59.2-15.152 72.528-1.823z" fill="#c378cb"/><path d="m456 256q0 6.615-.43 13.11a199.64 199.64 0 0 1 -186.46 186.46q-6.5.435-13.11.43a199.1 199.1 0 0 1 -113.43-35.25q-6.66-4.605-12.92-9.71a201.463 201.463 0 0 1 -32.18-33.08q-4.935-6.42-9.36-13.23a198.908 198.908 0 0 1 -32.08-105.44c-.02-1.1-.03-2.19-.03-3.29q0-10.305 1.02-20.34a200.07 200.07 0 0 1 178.64-178.64q10.04-1.005 20.34-1.02c1.1 0 2.19.01 3.29.03a199.4 199.4 0 0 1 50.16 7.2q8.7 2.4 17.08 5.56a200.372 200.372 0 0 1 84.51 60.86q5.115 6.255 9.71 12.92a199.1 199.1 0 0 1 35.25 113.43z" fill="#5f4bbc"/><path d="m432.21 79.79c13.327 13.329 11.72 39.476-1.824 72.527-18.743 45.751-60.351 104.73-116.844 161.224s-115.473 98.1-161.223 116.845c-33.052 13.544-59.2 15.152-72.528 1.822l-38.954 38.955c30.377 30.368 95.928 18.255 170.164-25.07 42.677-24.894 88.22-60.1 131.606-103.488s78.593-88.928 103.486-131.605c43.325-74.236 55.438-139.786 25.072-170.165z" fill="#c378cb"/><g fill="#4f3dab"><path d="m326.53 68.79-136.87 136.87-11.32-11.32 131.11-131.11q8.7 2.4 17.08 5.56z"/><path d="m76.863 245.75h106.773v16h-106.773z" transform="matrix(.707 -.707 .707 .707 -141.279 166.422)"/><path d="m420.75 142.57-65.76 65.75-11.31-11.31 67.36-67.36q5.115 6.25 9.71 12.92z"/><path d="m316.686 216h22.627v16h-22.627z" transform="matrix(.707 -.707 .707 .707 -62.323 297.539)"/><path d="m196.877 281.833h130.579v16h-130.579z" transform="matrix(.707 -.707 .707 .707 -128.156 270.269)"/><path d="m209.32 353.99-66.75 66.76q-6.66-4.605-12.92-9.71l68.36-68.36z"/><path d="m259.29 56.03-61.63 61.63-11.32-11.32 49.32-49.32q10.04-1.005 20.34-1.02c1.1 0 2.19.01 3.29.03z"/><path d="m181.66 133.66-125.63 125.63c-.02-1.1-.03-2.19-.03-3.29q0-10.305 1.02-20.34l113.32-113.32z"/><path d="m362.77 120.02-265.3 257.94q-4.935-6.42-9.36-13.23l263.51-256.18z"/><path d="m455.57 269.11a199.088 199.088 0 0 1 -3.4 26.04l-102.51 102.51-11.32-11.32z"/><path d="m333.66 413.66-38.51 38.51a199.088 199.088 0 0 1 -26.04 3.4l53.23-53.23z"/></g><path d="m120 16h16v16h-16z" fill="#ffba40"/><path d="m16 120h16v16h-16z" fill="#ffba40"/><path d="m472 416h16v16h-16z" fill="#ffba40"/><path d="m432 432h-16v24h-16v16h16v24h16v-24h16v-16h-16z" fill="#ffba40"/><path d="m72 40h-16v24h-16v16h16v24h16v-24h16v-16h-16z" fill="#ffba40"/><path d="m336 464h16v16h-16z" fill="#ffba40"/><path d="m16 296h16v16h-16z" fill="#ffba40"/><path d="m480 192h16v16h-16z" fill="#ffba40"/><path d="m216 24h16v16h-16z" fill="#f98500"/><path d="m32 160h16v16h-16z" fill="#f98500"/><path d="m456 352h16v16h-16z" fill="#f98500"/><path d="m200 480h16v16h-16z" fill="#f98500"/></g></svg>