<svg id="Capa_1" enable-background="new 0 0 512 512" height="512" viewBox="0 0 512 512" width="512" xmlns="http://www.w3.org/2000/svg"><g><path d="m357.54 0c-11.229 0-327.965 0-339.16 0-9.103 0-16.483 7.38-16.483 16.483v433.806c0 9.095 7.371 16.483 16.483 16.483h27.238 311.922c9.104 0 16.483-7.38 16.483-16.483 0-5.095 0-428.787 0-433.806 0-9.103-7.377-16.483-16.483-16.483z" fill="#9dc6fb"/><path d="m357.54 0c-16.858 0-12.07 0-29.202 0 9.082 0 16.483 7.355 16.483 16.483v433.806c0 9.103-7.379 16.483-16.483 16.483h29.202c9.104 0 16.483-7.38 16.483-16.483 0-5.095 0-428.787 0-433.806 0-9.115-7.391-16.483-16.483-16.483z" fill="#80b4fb"/><path d="m41.66 45.228c-9.103 0-16.483 7.38-16.483 16.483v405.06h20.442 311.921c9.104 0 16.483-7.38 16.483-16.483v-405.06z" fill="#80b4fb"/><path d="m496.906 414.883 13.197-30.419h-58.887l13.196 30.419z" fill="#bed8fb"/><path d="m486.741 384.464-13.196 30.419h23.361l13.197-30.419z" fill="#9dc6fb"/><path d="m62.101 512h339.16c9.103 0 16.483-7.38 16.483-16.483v-433.806c0-9.103-7.38-16.483-16.483-16.483h-339.16c-9.103 0-16.483 7.38-16.483 16.483v433.806c.001 9.103 7.38 16.483 16.483 16.483z" fill="#e7ecf6"/><circle cx="129.061" cy="131.489" fill="#e28086" r="23.076"/><g><path d="m357.378 123.095h-172.361c-4.268 0-7.726-3.459-7.726-7.726s3.459-7.726 7.726-7.726h172.361c4.268 0 7.726 3.459 7.726 7.726s-3.458 7.726-7.726 7.726z" fill="#407093"/></g><g><path d="m320.049 155.336h-135.032c-4.268 0-7.726-3.459-7.726-7.726 0-4.268 3.459-7.726 7.726-7.726h135.032c4.268 0 7.726 3.459 7.726 7.726.001 4.267-3.458 7.726-7.726 7.726z" fill="#407093"/></g><circle cx="129.061" cy="230.776" fill="#e28086" r="23.076"/><g><path d="m357.378 222.381h-172.361c-4.268 0-7.726-3.459-7.726-7.726 0-4.268 3.459-7.726 7.726-7.726h172.361c4.268 0 7.726 3.459 7.726 7.726.001 4.268-3.458 7.726-7.726 7.726z" fill="#407093"/></g><g><path d="m320.049 254.623h-135.032c-4.268 0-7.726-3.459-7.726-7.726s3.459-7.726 7.726-7.726h135.032c4.268 0 7.726 3.459 7.726 7.726s-3.458 7.726-7.726 7.726z" fill="#407093"/></g><circle cx="129.061" cy="330.062" fill="#e28086" r="23.076"/><g><path d="m357.378 321.668h-172.361c-4.268 0-7.726-3.459-7.726-7.726s3.459-7.726 7.726-7.726h172.361c4.268 0 7.726 3.459 7.726 7.726s-3.458 7.726-7.726 7.726z" fill="#407093"/></g><g><path d="m320.049 353.909h-135.032c-4.268 0-7.726-3.459-7.726-7.726s3.459-7.726 7.726-7.726h135.032c4.268 0 7.726 3.459 7.726 7.726s-3.458 7.726-7.726 7.726z" fill="#407093"/></g><circle cx="129.061" cy="429.349" fill="#e28086" r="23.076"/><g><path d="m357.378 420.955h-172.361c-4.268 0-7.726-3.459-7.726-7.726s3.459-7.726 7.726-7.726h172.361c4.268 0 7.726 3.459 7.726 7.726s-3.458 7.726-7.726 7.726z" fill="#407093"/></g><g><path d="m320.049 453.196h-135.032c-4.268 0-7.726-3.459-7.726-7.726s3.459-7.726 7.726-7.726h135.032c4.268 0 7.726 3.459 7.726 7.726s-3.458 7.726-7.726 7.726z" fill="#407093"/></g><path d="m485.265 441.717 11.641-26.834h-32.494l11.641 26.834c2.074 4.779 7.138 4.779 9.212 0z" fill="#017297"/><path d="m510.103 181.566h-58.887v202.898h58.887c0-8.708 0-194.228 0-202.898z" fill="#e28086"/><path d="m451.216 181.566h58.886v-28.316c0-10.289-6.516-18.63-14.554-18.63h-29.778c-8.038 0-14.555 8.341-14.554 18.63z" fill="#ecbe6b"/><path d="m510.103 181.566h-23.362v202.898h23.362z" fill="#dd636e"/><path d="m495.548 134.621h-23.361c8.038 0 14.554 8.341 14.554 18.63v28.316h23.361v-28.316c.001-10.289-6.516-18.63-14.554-18.63z" fill="#eab14d"/><path d="m473.545 414.883-4.566 10.525 7.075 16.309c2.073 4.779 7.137 4.779 9.211 0l11.642-26.834z" fill="#2b4d66"/><path d="m401.261 45.228h-29.202c9.103 0 16.483 7.38 16.483 16.483v433.806c0 9.103-7.38 16.483-16.483 16.483h29.202c9.103 0 16.483-7.38 16.483-16.483v-433.806c0-9.103-7.38-16.483-16.483-16.483z" fill="#d8e2f1"/></g></svg>