<svg id="Capa_1" enable-background="new 0 0 512.666 512.666" height="512" viewBox="0 0 512.666 512.666" width="512" xmlns="http://www.w3.org/2000/svg"><g><path d="m315 150.334c-8.284 0-15-6.716-15-15v-75h-110.381c-8.284 0-15-6.716-15-15s6.716-15 15-15h125.381c8.284 0 15 6.716 15 15v90c0 8.285-6.716 15-15 15z" fill="#453d81"/><path d="m189.619.334h-129.619c-8.284 0-15 6.716-15 15v60c0 8.284 6.716 15 15 15h129.619c8.284 0 15-6.716 15-15v-60c0-8.284-6.716-15-15-15z" fill="#5e54ac"/><path d="m506.436 169.133c-3.912-2.819-8.939-3.585-13.514-2.062l-103.429 34.477c-6.125 2.042-10.256 7.774-10.256 14.23v149.396c0 6.457 4.131 12.189 10.256 14.23l103.429 34.477c1.549.516 3.15.77 4.743.77 3.109 0 6.185-.967 8.771-2.832 3.912-2.819 6.23-7.347 6.23-12.168v-218.35c0-4.821-2.318-9.349-6.23-12.168z" fill="#453d81"/><path d="m379.237 295.093v70.082c0 6.457 4.131 12.189 10.256 14.23l103.429 34.477c1.549.516 3.15.77 4.743.77 3.109 0 6.185-.967 8.771-2.832 3.912-2.819 6.23-7.347 6.23-12.168v-104.559z" fill="#2e2654"/><path d="m394.237 129.567h-379.237c-8.284 0-15 6.716-15 15v301.052c0 8.284 6.716 15 15 15h379.237c8.284 0 15-6.716 15-15v-301.052c0-8.284-6.716-15-15-15z" fill="#5e54ac"/><path d="m0 295.093v150.526c0 8.284 6.716 15 15 15h379.237c8.284 0 15-6.716 15-15v-150.526z" fill="#453d81"/><path d="m418.127 464.299-143.81-143.81c-4.488-4.489-11.315-5.665-17.046-2.941l-18.953 3.763c-3.116 1.481-5.626 3.992-7.107 7.107l-3.577 18.561c-2.725 5.732-1.547 12.559 2.941 17.046l143.912 143.912c2.929 2.929 6.768 4.394 10.606 4.394 3.839 0 7.678-1.464 10.606-4.394l22.427-22.427c5.859-5.856 5.859-15.353.001-21.211z" fill="#ebf3ff"/><path d="m418.127 485.512c5.858-5.858 5.858-15.355 0-21.213l-143.81-143.81c-4.488-4.489-11.315-5.665-17.046-2.941l-18.953 3.763c-1.558.741-2.964 1.738-4.167 2.94l172.619 172.618z" fill="#d7e8ff"/><path d="m296.599 289.467-37.564-35.551-6.683-51.287c-.639-4.906-3.656-9.181-8.064-11.427-4.407-2.245-9.639-2.173-13.985.192l-45.42 24.738-50.842-9.492c-4.865-.908-9.861.641-13.36 4.139-3.498 3.498-5.046 8.497-4.138 13.359l9.493 50.841-24.74 45.422c-2.366 4.345-2.438 9.577-.192 13.985s6.521 7.425 11.427 8.064l51.288 6.682 35.553 37.564c2.855 3.018 6.806 4.689 10.893 4.689.78 0 1.564-.061 2.348-.185 4.886-.774 9.077-3.908 11.201-8.376l22.204-46.712 46.712-22.205c4.468-2.124 7.602-6.314 8.376-11.201.771-4.884-.914-9.838-4.507-13.239z" fill="#ffed6a"/><path d="m246.016 336.114 46.712-22.205c4.468-2.124 7.602-6.314 8.376-11.201.774-4.886-.912-9.84-4.505-13.241l-37.564-35.551-6.683-51.287c-.639-4.906-3.656-9.181-8.064-11.427-4.407-2.245-9.639-2.173-13.985.192l-45.42 24.738-50.842-9.492c-4.865-.908-9.861.641-13.36 4.139h-.001l125.336 125.336z" fill="#ffb454"/></g></svg>